<svg xmlns="http://www.w3.org/2000/svg" viewBox="0 0 512 512">
<defs><linearGradient id="b" x1="0" x2="1"><stop stop-color="#087ee8"/><stop offset="1" stop-color="#032f8b"/></linearGradient></defs>
<rect width="512" height="512" rx="112" fill="#052b78"/><circle cx="256" cy="245" r="168" fill="url(#b)"/><path d="M165 250q91 82 188-12-20 124-102 124-70-8-86-112z" fill="#fff"/><path d="M174 257l25 32 22-25 23 31 22-30 25 29 22-36 21 23 23-43q-94 59-183 19z" fill="#5b1512"/><path d="M217 73l75-34-31 96z" fill="#0750b9"/><circle cx="197" cy="204" r="25" fill="#fff"/><circle cx="316" cy="196" r="25" fill="#fff"/><circle cx="202" cy="208" r="12" fill="#5a2a07"/><circle cx="311" cy="201" r="12" fill="#5a2a07"/><path d="M144 380h224l-24 76H168z" fill="#ff6500"/><text x="256" y="430" text-anchor="middle" font-family="Arial" font-size="72" font-weight="900" fill="#fff">1</text>
</svg>
